<svg xmlns="http://www.w3.org/2000/svg" viewBox="0 0 804 150.5" width="803"><path d="M54.625.5h25.594L134 145h-25l-14.375-40h-55L25.5 145H.719zm141.688 33.719c11.5 0 21.8 2.106 31 6.406l-7 18.594c-9.8-3.8-17.888-5.719-24.188-5.719-18.8 0-28.313 12.5-28.313 37.5 0 12.2 2.3 21.4 7 27.5 4.7 6.1 11.594 9.219 20.594 9.219 10.3 0 20.019-2.619 29.219-7.719v20.219c-4.1 2.4-8.519 4.187-13.219 5.187-4.6 1-10.306 1.594-16.906 1.594-16.5 0-28.994-4.775-37.594-14.375-8.6-9.6-12.781-23.406-12.781-41.406 0-18.3 4.475-32.419 13.375-42.219 9-9.8 21.912-14.781 38.813-14.781zm97.406 0c14.4 0 25.694 4.393 34.094 13.093 8.3 8.7 12.5 20.7 12.5 36v12.5h-72.5c.3 10.6 3.193 18.707 8.593 24.407 5.4 5.7 13.019 8.5 22.719 8.5 6.4 0 12.4-.613 18-1.813 5.5-1.2 11.475-3.194 17.875-6.094v18.813a70.076 70.076 0 0 1-17.094 5.688c-6 1.1-12.6 1.687-20 1.687-16.9 0-30.187-4.881-39.687-14.781-9.5-9.9-14.313-23.513-14.313-40.813 0-17.8 4.413-31.806 13.313-41.906 8.9-10.2 21-15.281 36.5-15.281z" fill="#2f0555"/><g class="st0" stroke="#2f0555"><path d="M519.813 2.186c-1.925.025-3.95.525-5.9 1.725l-44.902 82.8h-1.999c-37.3-.6-73.2 20.6-72.1 41.9 0 11.3 8.8 19.9 24.1 19.9 12.4 0 24.1-7 33.7-19.3 4.8-6.1 8.6-11.6 11.4-16.2 3-4.6 6.1-10.3 9.6-16.7 10 .9 23.4 4.6 40.3 11 .6-2.4 0-4.9-1.8-7.5-9.9-6.4-21.1-10.398-33.8-12.098l33.8-64.4c-.6 10.8-.9 21.098-.2 38.598.8 17.1 2.2 31.801 6.1 48.001 5.7 23 16.1 39.5 34.9 40.1 5.5 0 10.6-2.801 15.6-8.101 5-5.4 8.8-11.6 11.6-18.6 3-7.2 5.4-14.7 7.417-23.362 3.718-13.263 6.118-25.061 7.418-35.861 10.6 2.6 17.201 4.998 20.001 7.198 2.7 2 4.199 6.001 4.199 12.101 0 3.2-.9 9.4-2.6 18.8-1.7 9.2-2.4 16-2.4 20.4 0 16.7 5.7 25.2 17.1 25.2 9.7 0 18.6-4.8 26.1-14.2a82.227 82.227 0 0 0 7.894-11.836c.57 16.35 7.197 26.76 21.044 26.76 9.7 0 18.4-4.8 25.9-14.2 7.5-9.4 13.2-20.798 16.9-34.198l-6-1.602c-2 10.1-6.2 19.701-12.3 28.301-6.1 8.7-12.4 12.899-18.8 12.899-10.1 0-15.1-7.1-15.1-21.3 0-4.4.499-10.5 1.799-19.1l1.9-11.399 2.4-13.6 2.2-12.9c7.2-.1 15.7-.7 25.6-1.8 1.5-2.2 2.1-6.4.6-8.6-8.8 1.6-17.1 2.5-24.8 3.1 2.7-16.2 4.001-27.2 4.001-33.1-5 .6-9.201 2.2-12.701 4.8 0 5.5-1.099 15.1-3.499 28.9-4.2.2-8.6 0-13.6-.4-1.3 1.7-1.5 3.9-.6 6.3 3 .3 7.4.7 13.1.9-3.152 18.67-5.395 32.957-6.716 43.071-2.305 7.62-5.89 14.853-10.623 21.603-6.1 8.7-12.398 12.901-18.798 12.901-7.3 0-11-5.7-11-17.1 0-5.3.9-13.201 2.9-23.501s2.9-16.398 2.9-18.198c0-4.6-1.1-8.402-4.2-11.202-3.1-3-4.8-4.599-10.5-6.299-2.8-.9-4.8-1.6-6.3-2l-7.5-1.7-7.4-1.8c.1-10.1-2.3-15.8-7.4-17.3-4.6 0-8.6 4.2-8.6 10.3 0 6.2 2.899 10.3 8.999 12.3-1.5 12.2-3.9 24.099-7.717 35.962-7.117 28.762-14.818 42.363-27.118 42.363-20.6 0-32-48.4-29.2-137.6-1.55-.7-3.374-1.15-5.3-1.126zM462.41 95.713h2l-8.2 14.8c-1.8 3.3-4.399 7.299-7.499 12.099-3.1 4.6-6 8.1-8.6 10.3-5.2 4.5-12.7 8.5-20.6 8.5-2.7 0-4.9-.3-8.8-1.8-3.8-1.7-6.6-6.3-6.6-12.7 0-7.9 4.699-15.1 14.299-21.5s24.3-9.7 44-9.7z" fill="none" stroke-width="1.00024875" stroke-miterlimit="10"/><path class="st1" d="M734.785 115.212c-1.5 3.5-2.2 7.9-2.2 12.9 0 7.9 6.1 14.9 18 14.9 10.5 0 18.4-5.7 18.4-16 0-7.9-8.5-18-17.1-25.6-4.2-3.9-8.1-8.3-11.6-13.2-3.5-5.1-5.3-9.9-5.3-14.3 0-6.4 3.1-11.6 9.6-15.6s13.1-6.1 19.9-6.1c10.3 0 15.6 5.3 16 16-.2.9-.7 1.5-1.5 1.5-5.7-6.8-12-10.1-18.8-10.1-10.1 0-15.6 4.4-15.6 10.5 0 2.9 1.8 6.8 5.7 11.4 3.9 4.6 7.9 9 12.5 13.4 4.6 4.2 8.8 9.4 12.7 15.1 3.9 5.7 5.7 11 5.7 15.8 0 5.3-3.1 10.5-9.6 15.4-6.3 5-13.4 7.4-21.3 7.4-17.1 0-26.8-9-26.8-18.4 0-7.5 3.5-12.7 10.5-15.8.4 0 .6.4.8.8z" stroke-miterlimit="10" fill="none"/></g></svg>