<svg xmlns="http://www.w3.org/2000/svg" viewBox="0 0 804 150.5" width="803"><path d="M54.625.5h25.594L134 145h-25l-14.375-40h-55L25.5 145H.719zm141.688 33.719c11.5 0 21.8 2.106 31 6.406l-7 18.594c-9.8-3.8-17.888-5.719-24.188-5.719-18.8 0-28.313 12.5-28.313 37.5 0 12.2 2.3 21.4 7 27.5 4.7 6.1 11.594 9.219 20.594 9.219 10.3 0 20.019-2.619 29.219-7.719v20.219c-4.1 2.4-8.519 4.187-13.219 5.187-4.6 1-10.306 1.594-16.906 1.594-16.5 0-28.994-4.775-37.594-14.375-8.6-9.6-12.781-23.406-12.781-41.406 0-18.3 4.475-32.419 13.375-42.219 9-9.8 21.912-14.781 38.813-14.781zm97.406 0c14.4 0 25.694 4.393 34.094 13.093 8.3 8.7 12.5 20.7 12.5 36v12.5h-72.5c.3 10.6 3.193 18.707 8.593 24.407 5.4 5.7 13.019 8.5 22.719 8.5 6.4 0 12.4-.613 18-1.813 5.5-1.2 11.475-3.194 17.875-6.094v18.813a70.076 70.076 0 0 1-17.094 5.688c-6 1.1-12.6 1.687-20 1.687-16.9 0-30.187-4.881-39.687-14.781-9.5-9.9-14.313-23.513-14.313-40.813 0-17.8 4.413-31.806 13.313-41.906 8.9-10.2 21-15.281 36.5-15.281z" fill="#2f0555"/><g class="st0" stroke="#2f0555"><path class="st1" d="M587.412 100.312c-1.8 8.3-4.2 15.8-7.2 23-2.8 7-6.6 13.2-11.6 18.6-5 5.3-10.1 8.1-15.6 8.1-18.8-.6-29.2-17.1-34.9-40.1-3.9-16.2-5.3-30.9-6.1-48-.7-17.5-.4-27.8.2-38.6l-33.8 64.4c12.7 1.7 23.9 5.7 33.8 12.1 1.8 2.6 2.4 5.1 1.8 7.5-16.9-6.4-30.3-10.1-40.3-11-3.5 6.4-6.6 12.1-9.6 16.7-2.8 4.6-6.6 10.1-11.4 16.2-9.6 12.3-21.3 19.3-33.7 19.3-15.3 0-24.1-8.6-24.1-19.9-1.1-21.3 34.8-42.5 72.1-41.9h2l44.9-82.8c3.9-2.4 8.1-2 11.2-.6-2.8 89.2 8.6 137.6 29.2 137.6 12.3 0 20-13.6 26.8-42.1l6.3 1.5zm-123-4.6h-2c-19.7 0-34.4 3.3-44 9.7-9.6 6.4-14.3 13.6-14.3 21.5 0 6.4 2.8 11 6.6 12.7 3.9 1.5 6.1 1.8 8.8 1.8 7.9 0 15.4-4 20.6-8.5 2.6-2.2 5.5-5.7 8.6-10.3 3.1-4.8 5.7-8.8 7.5-12.1l8.2-14.8zM684.712 100.112c-3.5 13.2-9 24.6-16.7 34.2-7.5 9.4-16.4 14.2-26.1 14.2-11.4 0-17.1-8.5-17.1-25.2 0-4.4.7-11.2 2.4-20.4 1.7-9.4 2.6-15.6 2.6-18.8 0-6.1-1.5-10.1-4.2-12.1-2.8-2.2-9.4-4.6-20-7.2-1.3 10.8-3.7 22.6-7.2 35.5-.7 1.5-6.1.7-6.1-1.3 3.5-11.6 5.9-23.5 7.4-35.7-6.1-2-9-6.1-9-12.3 0-6.1 4-10.3 8.6-10.3 5.1 1.5 7.5 7.2 7.4 17.3l7.4 1.8 7.5 1.7c1.5.4 3.5 1.1 6.3 2 5.7 1.7 7.4 3.3 10.5 6.3 3.1 2.8 4.2 6.6 4.2 11.2 0 1.8-.9 7.9-2.9 18.2-2 10.3-2.9 18.2-2.9 23.5 0 11.4 3.7 17.1 11 17.1 6.4 0 12.7-4.2 18.8-12.9 6.1-8.7 10.3-18.2 12.3-28.3l5.8 1.5zM751.212 100.112c-3.7 13.4-9.4 24.8-16.9 34.2-7.5 9.4-16.2 14.2-25.9 14.2-14.5 0-21.1-11.4-21.1-29.1 0-7.2 2.8-26.5 8.1-57.9-5.7-.2-10.1-.6-13.1-.9-.9-2.4-.7-4.6.6-6.3 5 .4 9.4.6 13.6.4 2.4-13.8 3.5-23.4 3.5-28.9 3.5-2.6 7.7-4.2 12.7-4.8 0 5.9-1.3 16.9-4 33.1 7.7-.6 16-1.5 24.8-3.1 1.5 2.2.9 6.4-.6 8.6-9.9 1.1-18.4 1.7-25.6 1.8l-2.2 12.9-2.4 13.6-1.9 11.4c-1.3 8.6-1.8 14.7-1.8 19.1 0 14.2 5 21.3 15.1 21.3 6.4 0 12.7-4.2 18.8-12.9 6.1-8.6 10.3-18.2 12.3-28.3l6 1.6z" stroke-miterlimit="10" fill="none"/><path class="st1" d="M756.812 115.212c-1.5 3.5-2.2 7.9-2.2 12.9 0 7.9 6.1 14.9 18 14.9 10.5 0 18.4-5.7 18.4-16 0-7.9-8.5-18-17.1-25.6-4.2-3.9-8.1-8.3-11.6-13.2-3.5-5.1-5.3-9.9-5.3-14.3 0-6.4 3.1-11.6 9.6-15.6s13.1-6.1 19.9-6.1c10.3 0 15.6 5.3 16 16-.2.9-.7 1.5-1.5 1.5-5.7-6.8-12-10.1-18.8-10.1-10.1 0-15.6 4.4-15.6 10.5 0 2.9 1.8 6.8 5.7 11.4 3.9 4.6 7.9 9 12.5 13.4 4.6 4.2 8.8 9.4 12.7 15.1 3.9 5.7 5.7 11 5.7 15.8 0 5.3-3.1 10.5-9.6 15.4-6.3 5-13.4 7.4-21.3 7.4-17.1 0-26.8-9-26.8-18.4 0-7.5 3.5-12.7 10.5-15.8.4 0 .6.4.8.8z" stroke-miterlimit="10" fill="none"/></g></svg>